/* XPM */
static char * sted_xpm[] = {
"64 48 6 1",
" 	c None s None",
".	c #FFFFFFFFFFFF",
"X	c #737371718484",
"o	c #313151518C8C",
"O	c #0000FFFFFFFF",
"+	c #00000000FFFF",
"                                                                ",
"                                                                ",
"  ...  ....                                                     ",
"   ...  ...             .    .      .                           ",
"    ...  ..     ...            .                                ",
"     ...  .    .    ..  . . .. ..   . ..                        ",
"  ..  ...       ..  . . . .. . .    . .                         ",
"  ...XX...XXXXXXXX.X.X.X.X.XX.X.XXXX.XX.XXXXXXXXXXXXXXXXXXXXXXXX",
"  ....  ...    ...  ..  . .  .  .   . ..                        ",
"  ....   ...        .                                           ",
"                    .                                           ",
"                                                                ",
"                                                                ",
"                                                                ",
"                                                                ",
"oooooooooooooooooooooooooooooooooooooooooooooooooooooooooooooooo",
"oooooooooooOOOOoOoOOOOOOOOOOOOooooooooooooooooOOOooooooooooooooo",
"oooooooooOOooooOOoOOoooOOoooOOoooooooooooooooooOOooooooooooooooo",
"oooooooooOoooooOooOooooOOooooOoooooooooooooooooOOooooooooooooooo",
"ooooooooOoo++++O+oO++++OO++++Ooooooooooooooooo+OOooooooooooooooo",
"ooooooooOO+oooo++o++oooOOooo++ooooooooooooooooOO+ooooooooooooooo",
"ooooooooOOOoooo+oo+oooOO+oooo+oooOOOOoooooOOOoOO+ooooooooooooooo",
"ooooooooOOOOOOo+oo+oooOO+oooo+oOOoooOOooOOoooOOO+ooooooooooooooo",
"oooooooo++OOOOOOooooooOO+ooooooOOoooOOooOOooooOOoooooooooooooooo",
"oooooooo+++ooOOOooooooOOooooooOOo++OOooOOo+++oOOoooooooooooooooo",
"oooooooo++++++OOoooooOO+ooooooOO+oOO++oOO+oooOO+oooooooooooooooo",
"oooooooOoo+++++OoooooOO+ooooooOOOOoo++oOO+oooOO+oooooooooooooooo",
"oooooooOooooo+O+oooooOO+ooooooOOooo++OoOOooooOO+oooooooooooooooo",
"ooooooOOOooooOO+oooooOOooooooo+OOo++Ooo+OOooOOOoOooooooooooooooo",
"ooooooO+oOOOOoo+ooooOOOOoooooo++OOOOooo++OOOo+OOoooooooooooooooo",
"ooooooo+oooooo+oooooo++ooooooo++ooooo+o++oooo++ooooooooooooooooo",
"oooooo+++oooo++oooooo++oooooooo++ooo+ooo++oo+++o+ooooooooooooooo",
"oooooo+oo++++ooooooo++++oooooooo++++ooooo+++oo++oooooooooooooooo",
"oooooooooooooooooooooooooooooooooooooooooooooooooooooooooooooooo",
"                                                                ",
"                                                                ",
"                                                                ",
"                                                                ",
"                                                                ",
"  .        .           .                         .              ",
"               .                                         .      ",
"  . ..  .. .  ..  .    . ..    .. .  . .   .. .  . ..   ..      ",
"  . . . .  . . . ...   . . .   . . . . .   . . . . . . . .      ",
"  . . .  . . . . .     . . .   . . . . .   . . . . . . . .      ",
"  . . . .. .  ..  .    . . .   . . .  .    . . . . . .  ..  .   ",
"                                      .                         ",
"                                     .                          ",
"                                                                "};
